<?xml version="1.0" encoding="utf-8"?>
<!-- Generator: Adobe Illustrator 28.1.0, SVG Export Plug-In . SVG Version: 6.00 Build 0)  -->
<svg version="1.1" id="Calque_1" xmlns="http://www.w3.org/2000/svg" xmlns:xlink="http://www.w3.org/1999/xlink" x="0px" y="0px"
	 viewBox="0 0 500 500" style="enable-background:new 0 0 500 500;" xml:space="preserve">
<style type="text/css">
	.st0{fill:#FFFFFF;}
</style>
<g>
	<path class="st0" d="M101.6,207c11,0,20,9,20,20v253H20V227c0-11,9-20,20-20H101.6 M101.6,187H40c-22.1,0-40,17.9-40,40v272.6
		c0,0.2,0.2,0.4,0.4,0.4h140.9c0.2,0,0.4-0.2,0.4-0.4V227C141.6,204.9,123.7,187,101.6,187L101.6,187z"/>
</g>
<g>
	<path class="st0" d="M460,66c11,0,20,9,20,20v394H378.4V86c0-11,9-20,20-20H460 M460,46h-61.6c-22.1,0-40,17.9-40,40v414H500V86
		C500,63.9,482.1,46,460,46L460,46z"/>
</g>
<g>
	<path class="st0" d="M280.8,288c11,0,20,9,20,20v172H199.2V308c0-11,9-20,20-20H280.8 M280.8,268h-61.6c-22.1,0-40,17.9-40,40v192
		h141.6V308C320.8,285.9,302.9,268,280.8,268L280.8,268z"/>
</g>
</svg>
