<?xml version="1.0" encoding="utf-8"?>
<!-- Generator: Adobe Illustrator 28.1.0, SVG Export Plug-In . SVG Version: 6.00 Build 0)  -->
<svg version="1.1" id="Calque_1" xmlns="http://www.w3.org/2000/svg" xmlns:xlink="http://www.w3.org/1999/xlink" x="0px" y="0px"
	 viewBox="0 0 500 500" style="enable-background:new 0 0 500 500;" xml:space="preserve">
<style type="text/css">
	.st0{fill:none;stroke:#FFFFFF;stroke-width:20;stroke-miterlimit:10;}
</style>
<path class="st0" d="M487,227v46c0,11-9,20-20,20h-41.1c-4.4,18-11.5,35-20.9,50.5l29.2,29.2c7.8,7.8,7.8,20.5,0,28.3l-32.5,32.5
	c-7.8,7.8-20.5,7.8-28.3,0l-29.1-29.1c-15.7,9.6-33,16.9-51.3,21.4V467c0,11-9,20-20,20h-46c-11,0-20-9-20-20v-41.1
	c-18.2-4.4-35.3-11.6-50.8-21.1l-28.8,28.8c-7.8,7.8-20.5,7.8-28.3,0L66.6,401c-7.8-7.8-7.8-20.5,0-28.3L95.3,344
	c-9.5-15.6-16.7-32.8-21.2-51H33c-11,0-20-9-20-20v-46c0-11,9-20,20-20h41.1c4.5-18.4,11.8-35.7,21.4-51.4l-29-29
	c-7.8-7.8-7.8-20.5,0-28.3l32.5-32.5c7.8-7.8,20.5-7.8,28.3,0L156.5,95C172,85.6,189,78.5,207,74.1V33c0-11,9-20,20-20h46
	c11,0,20,9,20,20v41.1c18.2,4.4,35.4,11.7,51,21.2l29.4-29.4c7.8-7.8,20.5-7.8,28.3,0l32.5,32.5c7.8,7.8,7.8,20.5,0,28.3l-29.5,29.5
	c9.5,15.6,16.6,32.7,21.1,50.9H467C478,207,487,216,487,227z"/>
<circle class="st0" cx="250" cy="250" r="108"/>
</svg>
