<?xml version="1.0" encoding="utf-8"?>
<!-- Generator: Adobe Illustrator 28.1.0, SVG Export Plug-In . SVG Version: 6.00 Build 0)  -->
<svg version="1.1" id="Calque_1" xmlns="http://www.w3.org/2000/svg" xmlns:xlink="http://www.w3.org/1999/xlink" x="0px" y="0px"
	 viewBox="0 0 500 500" style="enable-background:new 0 0 500 500;" xml:space="preserve">
<style type="text/css">
	.st0{fill:#FFFFFF;}
</style>
<path class="st0" d="M143.5,3.7c3.6,0,7.1,0.7,10.3,2.1c3.2,1.4,6.2,3.4,8.6,6l218.1,230c3.2,3.4,3.2,8.7,0,12l-218.1,230
	c-4.9,5.2-11.7,8.1-18.9,8.1c-15.6,0-26.1-12.8-26.1-26.2c0-6.2,2.2-12.5,7.2-17.8l184.1-194.1c3.2-3.4,3.2-8.7,0-12L124.6,47.8
	C108.9,31.1,120.7,3.7,143.5,3.7z"/>
</svg>
