<?xml version="1.0" encoding="utf-8"?>
<!-- Generator: Adobe Illustrator 28.1.0, SVG Export Plug-In . SVG Version: 6.00 Build 0)  -->
<svg version="1.1" id="Calque_1" xmlns="http://www.w3.org/2000/svg" xmlns:xlink="http://www.w3.org/1999/xlink" x="0px" y="0px"
	 viewBox="0 0 500 500" style="enable-background:new 0 0 500 500;" xml:space="preserve">
<style type="text/css">
	.st0{fill:none;stroke:#FFFFFF;stroke-width:20;stroke-miterlimit:10;}
</style>
<path class="st0" d="M352.1,101.7l-41.4,41.4l-45.3-45.3c-8.4-8.4-22-8.4-30.4,0l-45.3,45.3l-41.6-41.6l79.1-79.1
	c12.6-12.6,33-12.6,45.6,0L352.1,101.7z"/>
<path class="st0" d="M97.6,265.5l45.3,45.3l-41.2,41.2l-79.3-79.3c-12.6-12.6-12.6-33,0-45.6l79-79l41.6,41.6l-45.3,45.3
	C89.2,243.5,89.2,257.1,97.6,265.5z"/>
<path class="st0" d="M351.8,398.6l-79,79c-12.6,12.6-33,12.6-45.6,0l-78.8-78.8l41.2-41.2l45.3,45.3c8.4,8.4,22,8.4,30.4,0
	l45.3-45.3L351.8,398.6z"/>
<path class="st0" d="M477.6,272.8l-79.1,79.1l-41-41l45.3-45.3c8.4-8.4,8.4-22,0-30.4l-45.3-45.3l41.4-41.4l78.8,78.8
	C490.1,239.8,490.1,260.2,477.6,272.8z"/>
<path class="st0" d="M402.7,265.5l-92,92l-45.3,45.3c-8.4,8.4-22,8.4-30.4,0l-45.3-45.3l-46.7-46.7l-45.3-45.3
	c-8.4-8.4-8.4-22,0-30.4l45.3-45.3l46.7-46.7L235,97.8c8.4-8.4,22-8.4,30.4,0l137.4,137.4C411.1,243.5,411.1,257.1,402.7,265.5z"/>
</svg>
