<?xml version="1.0" encoding="utf-8"?>
<!-- Generator: Adobe Illustrator 28.1.0, SVG Export Plug-In . SVG Version: 6.00 Build 0)  -->
<svg version="1.1" id="Calque_1" xmlns="http://www.w3.org/2000/svg" xmlns:xlink="http://www.w3.org/1999/xlink" x="0px" y="0px"
	 viewBox="0 0 500 500" style="enable-background:new 0 0 500 500;" xml:space="preserve">
<style type="text/css">
	.st0{fill:#FFFFFF;}
</style>
<path class="st0" d="M494.2,141.2c0,3.6-0.7,7.1-2.1,10.3c-1.4,3.2-3.4,6.2-6,8.6l-230,218.1c-3.4,3.2-8.7,3.2-12,0l-230-218.1
	C8.9,155.2,6,148.4,6,141.2c0-15.6,12.8-26.1,26.2-26.1c6.2,0,12.5,2.2,17.8,7.2l194.1,184.1c3.4,3.2,8.7,3.2,12,0l194.1-184.1
	C466.9,106.6,494.2,118.4,494.2,141.2z"/>
</svg>
